<?xml version="1.0" encoding="UTF-8"?>
<!DOCTYPE svg
PUBLIC "-//W3C//DTD SVG 1.1//EN"
       "http://www.w3.org/Graphics/SVG/1.1/DTD/svg11.dtd">
<svg viewBox="225 418 919 574" width="694px" height="156px" xmlns="http://www.w3.org/2000/svg" version="1.1">
   <rect width="81" height="20" x="508" y="433" style="fill:#007;stroke:black;"/>
   <text width="81" height="20" x="513" y="447" style="fill:#fff;" font-family="Arial" font-size="16px"> comments</text>
   <rect width="81" height="20" x="508" y="453" style="fill:#aea;stroke:black;"/>
   <text width="81" height="20" x="513" y="467" style="fill:black;" font-family="Arial" font-size="16px">id</text>
   <rect width="81" height="20" x="508" y="473" style="fill:none;stroke:black;"/>
   <text width="81" height="20" x="513" y="487" style="fill:black;" font-family="Arial" font-size="16px">username</text>
   <rect width="81" height="20" x="508" y="493" style="fill:none;stroke:black;"/>
   <text width="81" height="20" x="513" y="507" style="fill:black;" font-family="Arial" font-size="16px">content</text>
   <rect width="81" height="20" x="508" y="513" style="fill:none;stroke:black;"/>
   <text width="81" height="20" x="513" y="527" style="fill:black;" font-family="Arial" font-size="16px">project</text>
   <rect width="81" height="20" x="240" y="459" style="fill:#007;stroke:black;"/>
   <text width="81" height="20" x="245" y="473" style="fill:#fff;" font-family="Arial" font-size="16px"> users</text>
   <rect width="81" height="20" x="240" y="479" style="fill:#aea;stroke:black;"/>
   <text width="81" height="20" x="245" y="493" style="fill:black;" font-family="Arial" font-size="16px">id</text>
   <rect width="81" height="20" x="240" y="499" style="fill:none;stroke:black;"/>
   <text width="81" height="20" x="245" y="513" style="fill:black;" font-family="Arial" font-size="16px">username</text>
   <rect width="81" height="20" x="240" y="519" style="fill:none;stroke:black;"/>
   <text width="81" height="20" x="245" y="533" style="fill:black;" font-family="Arial" font-size="16px">password</text>
   <rect width="81" height="20" x="240" y="539" style="fill:none;stroke:black;"/>
   <text width="81" height="20" x="245" y="553" style="fill:black;" font-family="Arial" font-size="16px">created_at</text>
   <rect width="81" height="20" x="823" y="436" style="fill:#007;stroke:black;"/>
   <text width="81" height="20" x="828" y="450" style="fill:#fff;" font-family="Arial" font-size="16px"> visits</text>
   <rect width="81" height="20" x="823" y="456" style="fill:#aea;stroke:black;"/>
   <text width="81" height="20" x="828" y="470" style="fill:black;" font-family="Arial" font-size="16px">id</text>
   <rect width="81" height="20" x="823" y="476" style="fill:none;stroke:black;"/>
   <text width="81" height="20" x="828" y="490" style="fill:black;" font-family="Arial" font-size="16px">ip</text>
   <rect width="81" height="20" x="823" y="496" style="fill:none;stroke:black;"/>
   <text width="81" height="20" x="828" y="510" style="fill:black;" font-family="Arial" font-size="16px">last_visit</text>
</svg>
